<?xml version="1.0" encoding="utf-8"?>
<!-- Generator: Adobe Illustrator 22.1.0, SVG Export Plug-In . SVG Version: 6.00 Build 0)  -->
<svg version="1.1" xmlns="http://www.w3.org/2000/svg" xmlns:xlink="http://www.w3.org/1999/xlink" x="0px" y="0px"
	 viewBox="0 0 1920 200" style="enable-background:new 0 0 1920 200;" xml:space="preserve">
<style type="text/css">
	.st0{fill:#0755DD;}
	.st1{opacity:0.4;}
	.st2{opacity:0.18;fill:none;stroke:#FFFFFF;stroke-width:2;stroke-linecap:round;stroke-linejoin:round;stroke-miterlimit:10;}
	.st3{display:none;}
	.st4{display:inline;fill:#FFFFFF;}
	.st5{fill:#FFFFFF;}
</style>
<g id="Calque_2">
	<rect class="st0" width="1920" height="200"/>
</g>
<g id="Calque_1" class="st1">
	<path class="st2" d="M1113.4,93.4c0,1-0.3,2.2,0.1,3c3.1,6.2,6.5,12.3,9.4,18.6c7.1,15.4,9.7,32.2,13.9,48.5
		c2.4,9.1,2.2,18.5-1.8,27.5c-1.3,3-2.8,6.1-4.2,9.1"/>
	<path class="st2" d="M1113.9,92.9c7.8,0.7,15.8,0.6,23.5,2.2c13,2.6,18.9,12.7,22.5,24.3c3.6,11.8,3,23.9-0.2,35.4
		c-3.8,13.5-2.7,26,2,39.1c0.7,2,1.4,4,2,6"/>
	<path class="st2" d="M207.2,0c-1.5,7.5,1.2,14.4,6.9,20.4c4.6,4.8,10,9,15.4,13c12.2,9.1,14,20.9,5.8,33.5
		c-6,9.3-13.6,17.5-19.8,26.6c-7.5,11.2-14.1,22.9-21.1,34.4c-3.1,5-5.9,10.4-11.5,12.9c-3.6,1.6-7.6,2.8-11.5,3
		c-9.2,0.5-18.4,0.2-27.6,2.9c-12.8,3.8-20.6,23.8-11.5,35.3c5.4,6.8,12.8,8.9,20.6,8.7c7.5-0.1,15.1-1.7,22.5-3.4
		c9-2.1,17.4-1.4,25.6,3.1c10.6,5.8,21.6,6.7,33.5,3.7c13.1-3.2,26.3-5.7,39.9-6.3c8.2-0.3,16.5-1.3,24.5-3
		c9.4-1.9,17-7.3,23.5-14.4c3.9-4.2,7.7-8.6,12.1-12.4c4.7-4.2,10.6-6,16.9-6.1c6.7-0.1,13.3-0.1,20,0c14.2,0.1,26.2-4.6,36.6-14.4
		c7-6.7,14.3-13.1,22-19c16-12.3,33.2-14,51.5-5.1c4.1,2,8.3,3.7,12.5,5.5c9.4,4.1,17.5,1.4,25-4.6c4.2-3.4,8.5-6.9,12-11
		c6.3-7.4,14.2-7.7,22.6-5.9c8.4,1.9,16.6,4.4,25,6.4c12.5,2.9,25.3,1.4,38,2.2c11,0.7,22.4-0.2,33,3.9c6.9,2.7,13.9,5.2,20.5,8.5
		c14.8,7.5,29,15.9,42.6,25.3c7.7,5.3,15.8,10.1,24,14.5c13.2,7,19.6,17.7,19.5,32.6c0,3,0,6,0.1,9.1"/>
	<path class="st2" d="M459.6,0c0.2,1.3,0.5,2.6,0.9,4c3.8,15.6,11.5,29.5,18.9,43.5c5.2,9.9,13.5,15.9,24,19
		c14.8,4.3,28,3.9,39.2-9.3c10-11.9,22.1-21.7,34.8-30.6C587.5,19.4,595.2,11,598,0"/>
	<path class="st2" d="M800.5,0c0,8.5,0,17.1,1.1,25.4c1.2,8.8,7.8,15.1,14.8,19.9c18.4,12.5,34.6,26.9,47.2,45.5
		c3.1,4.6,8.7,8.2,13.9,10.4c4.5,1.9,10,1.9,14.9-1.1c5.4-3.4,8-8.8,11-14.1c4.7-8.4,9.8-16.4,16.4-23.6
		c5.3-5.7,10.5-11.8,14.4-18.5C942.4,30.2,949.8,16,957.3,2c0.4-0.7,0.7-1.3,1-2"/>
	<path class="st2" d="M1346.7,0c7.2,4.8,14.7,9.1,22.7,12.3c12.6,5,26,6.8,39.9,5.9c15-0.9,28.6-5.5,41.5-12.7
		c3.2-1.8,6.3-3.6,9.5-5.5"/>
	<path class="st2" d="M1452.3,149.4c1,1.8,1.7,4,3.1,5.4c10.5,11.1,23.8,17.3,38.4,21.2c10.5,2.8,21,6.2,31,10.5
		c7.5,3.2,13.7,7.8,19,13.4"/>
	<path class="st2" d="M1719.8,0c4.4,7.8,9.9,14.7,17,20.4c8.3,6.7,17.9,10.5,28.5,9.3c11.1-1.2,22-4.3,33-6.3c11-2,21.9-4.2,33-5.4
		c8.2-0.9,16.6-0.3,25-0.1c9.2,0.2,17.6,2.9,25,8.5c6.3,4.7,8.3,11.3,7.3,18.5c-1.2,8.6-4,17-5.2,25.5c-1.1,7.9-1.9,16-1.4,24
		c0.7,11.7,3,23.3,0.8,35c-1.2,6.2-3.7,11.8-8.5,16c-6.2,5.5-13.2,5.2-20.5,2.5c-7.6-2.7-15.2-5.8-23-7.9
		c-17.3-4.6-34.6-8.9-52-13.1c-13.2-3.2-26.4-4.1-39.5,0.9c-10.8,4.2-20.3,12.9-16.7,27.6c2.1,8.4,3.7,17,3.3,25.9
		c-0.3,6.7-1.4,12.9-3.4,18.6"/>
	<path class="st2" d="M1189.4,200c0.1-0.9,0.1-1.7,0.2-2.6c1.3-13.3,6.7-24.7,13.8-35.4c7.5-11.3,8.4-23.1,6.6-36.1
		c-1.5-10.6,0.3-20.8,8.3-29c6.2-6.3,12.6-12.2,21-15.5c15-5.9,29.7-4.3,44,2.1c14.1,6.3,25.7,16.2,37.5,25.9c9,7.4,19.5,9.7,31,8.6
		c9.3-0.9,18.8-0.6,27.9-2.3c6.2-1.2,12.4-0.8,18.7-2.2c7.6-1.8,15.7,1.6,21.3,8c1.3,1.5,2.1,2.4,4.5,2.8c3.4,0.7,6.4,3.9,9.6,6.1"
		/>
	<path class="st2" d="M1467.4,0c-0.9,0.5-1.7,1-2.6,1.5"/>
	<path class="st2" d="M1452.8,148.9c1.2,0.7,2.6,1.1,3.5,2c11.1,12.5,25.8,18.2,41.5,22c9.6,2.4,19,5.5,28.5,8.4
		c10.9,3.4,19.1,10.8,27.5,18c0.2,0.2,0.4,0.4,0.6,0.5"/>
	<path class="st2" d="M1714.3,0c3.9,6.9,8.3,13.5,13.2,19.8c10.8,14,25.6,20.2,43.8,16.2c17.4-3.8,34.5-9.5,52.5-10
		c12-0.4,24.4-1.9,35.9,0.4c15,3,19.2,9.4,18.1,24c-0.9,12.5-1.7,25-1.9,37.5c-0.2,9.5,0.7,19,0.8,28.5c0,3.7-0.5,7.5-1.5,11
		c-3.2,10.7-12.6,15.7-23.4,13c-13.5-3.3-27-6.6-40.5-10c-13.5-3.4-26.9-7.3-40.5-10.4c-15.5-3.5-30.7-0.8-44.3,6.6
		c-12.7,6.9-14.6,13.6-11.6,27.2c0.9,4.1,2.9,7.9,3.9,12c1.8,7.5,3.6,14.9,2.3,23c-0.7,3.9-1.6,7.6-2.9,11"/>
	<path class="st2" d="M781,200c-1.2-4.8-1.8-9.9-2.1-15.1c-0.5-9.3-0.7-18.7-1-28c-0.3-8.6-4-15.4-11.5-20c-3.9-2.4-7.7-5-11.5-7.5
		c-8.2-5.4-15.1-11.7-18-21.5c-2-6.7,0.2-13,5.5-17.1c5.9-4.5,12.9-5.3,19.6-5.7c9.5-0.5,19.2-0.3,28.4,1.5c9,1.7,14.1,9.2,17,17.7
		c2.3,6.8,6.7,10.6,13.5,12.5c9.2,2.6,18.4,5.5,27.5,8.4c18.7,5.9,37.7,9.8,57.5,9.6c14.3-0.1,20.1-7.2,23.1-18.1
		c2.8-10,4.5-20.8,9.8-29.3c11.9-19.1,22.9-38.7,34.2-58.2c5.7-9.7,11.3-19.4,16.2-29.5"/>
	<path class="st2" d="M951,200c0.6-11.4,2.1-22.8,4-34c2.3-13.7,10.3-24,21.4-32c12.1-8.7,24-17.8,38-23.6
		c8.2-3.4,16.6-5.6,25.5-6.6c16.2-1.7,32.3-4.3,48.5-6.3c8-1,16-1.7,24-2.5"/>
	<path class="st2" d="M1110.7,0c0,0.2,0.1,0.3,0.1,0.5c2.5,12.9,0.6,25.7-1.5,38.5c-1.8,11.1-4.5,22.2-3.4,33.5
		c0.7,7.4,2.8,14.4,7.4,20.5"/>
	<path class="st2" d="M603.8,0c-2.3,10.9-8.5,20.1-18.3,27.5c-6.5,4.8-12.9,9.7-19,15c-8.2,7.2-14.6,15.5-17.7,26.4
		c-2.1,7.3,0.8,12.3,5.7,16.5c10.2,8.7,22.1,13.8,35.5,14.4c11.6,0.6,23.3,0.4,35,0.1c16.3-0.5,32,1.2,47.1,8.4
		c17,8.1,32.4,18.5,47.5,29.6c6.2,4.6,13.1,8.2,19.4,12.6c5.4,3.8,10.8,7.9,15.4,12.5c5.3,5.3,6.9,12.6,7.6,19.9
		c0.5,5.7,0.8,11.4,1.4,17.1"/>
	<path class="st2" d="M795,0c-0.8,6.8-1.5,13.6-2.1,20.5c-1.1,13,4,22.8,15.4,29.6c11.3,6.7,21.9,14.4,30.5,24.4
		c4.7,5.5,9.2,11.2,13.5,17c6,8,12.3,15.4,22,19c14.8,5.5,27.3,0.5,33-12c7.2-15.9,18-29.2,28.8-42.7c6.1-7.7,10-17.1,14.7-25.8
		c5.4-9.9,10.9-19.8,15.9-30"/>
	<path class="st2" d="M454.6,0c2.6,12.5,7.8,24.1,12.4,36c2.9,7.4,6.1,14.6,9,22c4.7,12.1,13.9,18.9,26,22.6
		c3.8,1.2,7.1,3.7,10.5,5.9c3.5,2.3,3.4,9.5,1,13.9c-3.2,5.7-11,9.8-16.5,8.4c-3.3-0.8-6.3-2.4-9.5-3.4c-6-1.9-11.9-4.7-18-5.3
		c-15.2-1.5-28.4,4.8-40.4,13.4c-7.8,5.6-14.8,12.5-22.1,18.9c-5.8,5.1-12.1,9.1-19.5,11.6c-12.5,4.1-24.7,0.5-37-0.6
		c-9.7-0.9-18.4,1.2-25.4,8.1c-2.5,2.5-4.5,5.5-6.5,8.5c-6,8.8-13.6,15.9-24.1,18.3c-9.5,2.2-19.3,3.3-29,4.6
		c-7.6,1-15.3,1.6-23,2.6c-8,1-15.9,0.7-23.5-2c-8.8-3.2-15.7-9.3-22.4-15.5c-4.7-4.3-5.9-9.9-3.6-15.9c1.3-3.5,2.8-7,4-10.5
		c7.6-22.1,18.9-41.9,35.4-58.6c5.5-5.5,10.6-11.6,15-18c8.3-12.3,6.1-27.2-3.9-35.9c-5.3-4.6-11-8.6-16.4-13.1
		c-4.3-3.5-7.5-7.8-8-13.5c-0.1-0.8-0.1-1.6-0.1-2.5"/>
	<path class="st2" d="M1747.8,200c3-6.9,5.9-13.7,8.9-20.6c3.9-8.8,9.8-15.4,20-16.4c7-0.7,14-1.4,21-0.9
		c19.7,1.4,35.1,10.2,42.8,28.9c1.2,3,2.4,6,3.6,9"/>
	<path class="st2" d="M1739.7,0c4.5,3.9,9.9,6.7,16.6,7.3c7.9,0.7,16.1,0.4,23.9-1c11.5-2.2,22.8-4.6,34.5-4.4c14,0.3,28-0.5,42,0.2
		c16.7,0.9,32.9,4.3,47,14.3c0.6,0.4,1.4,0.5,2,1c9.6,8.4,12,14.1,6,28.5c-3.8,9.2-8.3,18.1-11.3,27.6c-3.4,10.8-3,21.9-0.2,32.9
		c1.8,7,3.9,13.9,4.8,21c0.9,7.1,1.4,14.4,0.5,21.4c-1.5,11.2,0.8,17.2,10.7,22.5c1.2,0.6,2.3,1.3,3.5,2"/>
	<path class="st2" d="M1749.1,0c3.7,1.6,7.8,2.5,12.2,2.7c5.8,0.2,11.9-1,17.7-2.7"/>
	<path class="st2" d="M1868,0c3.6,0.5,7.2,1.2,10.7,2.1c14.9,3.6,29.2,8.8,40.5,19.9c0.5,0.5,0.5,1.6,0.8,2.4c0,0,0,0,0,0"/>
	<path class="st2" d="M1183.9,200c0.2-12.8,2.5-25.1,8-37c6.1-13,8.6-25.9,5.2-40.1c-1.3-5.3-0.7-11.6,0.9-16.9
		c9.8-31.6,40.6-44.2,70.8-35.9c16.9,4.7,30.6,15.5,44,26.3c7.1,5.7,13.7,12.2,22.5,15.5c11.9,4.4,23.9,2.8,36,1.5
		c4.7-0.5,9.3-1.4,14-1.4c3.6,0,7.7-1.6,11,1.4"/>
	<path class="st2" d="M430,135.4c2.8-2.3,5.5-5,8.5-6.9c11.6-7.5,23.3-5.2,34.4,1.1c8.8,4.9,17,11,25.6,16.3c7.1,4.4,14.5,6,22,0.5
		c4.3-3.2,9.2-5.8,12.9-9.6c12.4-12.5,27.6-17.2,44.6-16.8c10.3,0.2,20.7,1.1,31,2c9.7,0.8,19,3.6,27.5,8.5
		c10.8,6.3,21.5,12.7,32,19.5c16.3,10.6,32.4,21.6,48.5,32.4c6.3,4.3,10.9,10,11.8,17.6"/>
	<path class="st2" d="M328.4,200c0.8-1.2,1.7-2.6,2.7-4c4.4-5.8,9.8-10.9,15.5-15.5c6.3-5.1,13.9-7.9,21.9-9.7
		c12.4-2.8,24.7-6.1,35.5-13.4c1.6-1.1,3.6-1.8,5.5-2c2.5-0.3,4.3-0.8,4.5-3.6"/>
	<path class="st2" d="M435.5,131.9c1.2-0.2,2.5,0,3.5-0.5c10.5-5.5,20.8-4.7,31,0.6c3.5,1.8,6.8,4.1,10,6.5
		c7.6,5.7,15,11.7,22.5,17.4c5.5,4.2,11.4,4.2,16.9,0c4.7-3.6,9.1-7.6,13.5-11.4c7.7-6.7,14.9-13.9,25-17c14.5-4.4,29.1-3.7,44-2.7
		c15.3,1.1,28.4,6.7,40.5,15.7c5.2,3.8,10.4,7.9,16,10.9c18.9,10.2,35.1,24.4,52.9,36.1c5,3.3,8.3,7.6,10,12.5"/>
	<path class="st2" d="M116.5,200c-3.6-4.3-5.2-10.1-5.4-18.6c-0.1-7.5,0.4-15.2,2-22.5c3.2-14.1,10.1-25.8,25.3-30
		c5.6-1.5,11.3-2.9,17-4c11.8-2.2,22.2-6.3,29.5-16.5c6.9-9.7,12.9-19.9,17.6-31c5.1-12,4.9-23.2-2.2-34
		c-4.9-7.4-10.9-14.2-15.8-21.6c-3.5-5.3-4.3-11.3-2.8-18c0.3-1.4,0.7-2.7,1.2-3.9"/>
	<path class="st2" d="M110.2,200c-2-4.1-2.9-9.4-3.2-16.1c-0.4-10.7,1.7-21.2,4.4-31.5c3.7-14.1,11.9-23.8,26.1-27.9
		c5.5-1.6,11.3-2.5,17-3.6c10.9-2.1,20.5-6.3,27.6-15.5c5.9-7.8,10.6-16.1,14.6-25c6-13.3,5.9-25.6-2.7-37.5
		c-4.7-6.5-9.7-12.6-14.4-19c-5.4-7.4-5.8-15.5-1.9-23.4c0.1-0.2,0.2-0.4,0.3-0.5"/>
	<path class="st2" d="M1.5,178.9c9.8,3.8,13.6,12.1,16,21.1"/>
	<path class="st2" d="M130.5,12.5c-1.7,3.3-3.6,6.6-4.9,10c-3.8,9.8,0.2,18.3,10.5,21.4c6.2,1.9,12.7,2.7,19,4.1
		c17.2,4,22.9,20.6,14,35.5c-9.9,16.4-28.9,18.2-45.4,9.4c-5.4-2.9-10.3-6.7-15.6-9.9c-4-2.4-8.3-4.3-12.5-6.6
		c-5.6-3-10.9-6.4-13.1-13c-0.6-1.9-2.2-3.6-2.9-5.5C74,43.1,63.1,34.6,48,30.9c-2.4-0.6-4.7-1.6-7-2.5"/>
	<path class="st2" d="M10.7,200c-2-4.9-4.7-9.6-8.7-13.6"/>
	<path class="st2" d="M138.5,4.5c-1.2,0.3-3.2,0.4-3.4,1c-1.4,4.1-5,5.6-8,8.1c-9.8,8.1-12.1,25.1-2.1,32.9c3.8,3,8.2,4.2,13,4.5
		c4.8,0.3,9.7,0.7,14.5,1.5c8.7,1.6,15.4,6.4,16.3,15.5c0.8,8.3-2.4,15.9-9.8,21c-11.2,7.6-21.7,6-32.4-1.1
		c-3.5-2.3-6.3-5.7-9.6-8.4c-3.9-3.1-7.7-6.5-12-8.9C95.7,65.5,87.8,59,82.5,49.9C76,38.5,65.4,33.1,53.5,29.5
		c-3.8-1.2-7.7-2.3-11.5-3.5"/>
	<path class="st2" d="M1204.8,200c2.3-6,5.7-11.6,9.5-17.1c6-8.6,13.5-16.5,16.5-26.9c2.4-8.5,4.7-17.2,6-26
		c3.3-23.2,22.3-34,43.6-28.5c11,2.8,19.6,9.5,27.4,17.1c8,7.7,17,12.5,28.5,11.6c3.4-0.3,7,0.9,10.5,1.4c1,0.1,2.1,0.2,3,0
		c2.4-0.7,4.6-2,7-2.4c8.5-1.5,17.1-2.3,25.5-4.2c10.4-2.3,20.1-0.2,29.5,3.7c14.2,5.7,23.7,17,33,28.5c6.9,8.5,13.7,17,23.5,22.5
		c3.3,1.8,6.7,3.7,10,5.5"/>
	<path class="st2" d="M1208.4,200c2.7-6.5,6.7-12.4,10.9-18.1c8.1-10.7,15.5-21.7,18.5-35c1.8-7.9,3.5-15.8,6.1-23.5
		c4.1-12,14.1-17.8,25.9-18.5c12.5-0.7,22.6,4.8,31.5,12.9c8.4,7.7,16.6,15.6,29,15.4c4.8-0.1,9.7-1.2,14.5-1.9"/>
	<path class="st2" d="M817.1,0c2.5,8.7,6.6,17,15.3,21.4c8.2,4.2,18.9,4.2,26-3.4c7.8-8.4,16.8-14.2,26.7-18"/>
	<path class="st2" d="M1761.6,200c1.1-2.4,2.2-4.7,3.3-7c3-6.1,7.6-11.1,13.9-14c16-7.4,36.4-2.7,47.1,13.4c1.6,2.5,3.1,5,4.4,7.6"
		/>
	<path class="st2" d="M822.4,0c1,2.1,2.3,4.1,3.8,6.1c5.1,6.3,14.3,10.6,23.6,5.4c6.7-3.7,13.3-7.6,19.9-11.4"/>
	<path class="st2" d="M1300.2,200c10-10.1,24.7-15,39.6-10c6.2,2,12.2,4.9,18.5,6.3c9.2,2,12.1,1.2,13.4-9.4c0.2-1.8-0.1-3.7,0-5.5
		c0.7-8.5,1.8-16.9,8.9-23.1c1-0.8,1.4-2.3,2-3.4"/>
	<path class="st2" d="M90.5,161.9c0.5-1.2,1.4-2.3,1.4-3.5c0.6-12.3-0.2-24.3-4.5-36c-2.8-7.5-6.1-14.9-8.4-22.5
		C75.7,88.2,67.4,82.2,56.5,79C40,74.1,23.5,69.3,7,64.5C5.2,64,3.3,64.1,1.5,64"/>
	<path class="st2" d="M26.3,0c3.9,2.3,8,4.3,12.2,6c11.6,4.7,23.7,5.2,36,5c8-0.1,15.3-2.1,22.5-5.5c3.6-1.7,7.1-3.6,10.5-5.5"/>
	<path class="st2" d="M1293.4,200c4.6-5.1,9.8-9.4,16.4-12.1c12.4-5.2,25-5.6,38-3c10.3,2.1,13,0.9,16.5-5.9c1.2-2.4,2.2-4.9,3-7.5
		c3-9.3,9.8-15.1,18.1-19.4c1.6-0.8,4-0.3,5.9-0.6c13.1-2.4,22.1,3.8,29.5,13.6c4.7,6.3,7.2,13.5,8.2,21.4c0.5,3.7,2.1,6.9-3.1,8.7
		c-1.3,0.4-1.7,3.2-2.6,4.8"/>
	<path class="st2" d="M1463.8,200c-2.7-2-5.4-4-7.9-6.2c-3.1-2.7-5.2-6.5-7.6-9.9c-6.6-9.6-12.7-19.6-19.6-28.9
		c-7.5-10.1-17.5-16.8-30.4-18.6c-10.4-1.5-20.3,0.7-30,4.1c-12.3,4.3-25.1,7.7-36.8,13.4c-2.5,1.2-4.6,1.2-6.6,0.8
		c-2.2-0.4-4.3-1.2-6.6-0.9c-8.1,1.1-15.3-2.2-22-6.4c-3.2-2-6.3-4.5-9.5-6.4c-8.9-5.4-15.6-3.9-21.4,5c-2.7,4.1-5,8.5-7,13
		c-5.7,12.9-13.8,24-23,34.5c-1.8,2-3.3,4.2-4.7,6.5"/>
	<path class="st2" d="M89.5,169.9c3.6-2.6-0.1-5.7,0.4-8.5c0.3-1.7-1-3.7-0.8-5.5c0.9-11.2-2.3-21.4-6.6-31.5
		c-2.7-6.2-5.8-12.3-8.4-18.5c-5.3-12.8-14.5-20.9-27.5-25.6C31.8,74.9,17,70.2,1.5,68"/>
	<path class="st2" d="M1920,40.5c-1.7,3.3-3.5,6.7-5.2,10c-4.2,8.3-8.9,16.2-11.2,25.5c-2.6,10.6-2,20.8,1.2,31
		c2.2,6.9,5.6,13.5,7.3,20.6c1.7,7,2.3,14.3,2.5,21.5c0.2,5.6,1.1,10.5,5.1,14.5"/>
	<path class="st2" d="M629.4,162.9c0.7,1.8,1.2,3.7,2,5.5c3.3,7,7,13.9,9.9,21c1.6,3.9,3.5,7.5,6,10.5"/>
	<path class="st2" d="M534.5,200c0.3-2.7,0.7-5.4,1-8.1c2.1-19,13-32.4,29-41.3c17.9-10,40.1-9.4,54.9,2.8"/>
	<path class="st2" d="M335.7,200c0.1-0.2,0.2-0.4,0.3-0.5c7.4-13,19.1-20.2,33-24.5c10.4-3.2,21.1-5.6,30.5-11.5
		c3.5-2.2,7.8-3.2,9.5-7.5"/>
	<path class="st2" d="M1339.9,0c2.9,1.9,5.9,3.7,8.9,5.5c10.3,6.1,20.9,11.3,32.5,13.9c21.8,4.8,43.2,3.3,63.5-6.9
		c4.2-2.1,8.3-4.3,12.5-6.5"/>
	<path class="st2" d="M1511.8,200c-0.9-0.8-2-1.6-3.1-2.4c-3.1-2.1-6.5-3.9-10-5.6c-0.6-0.3-1.3-0.6-1.9-0.9
		c-3.7-1.7-7.4-3.4-11-5.2"/>
	<path class="st2" d="M1734.4,200c1.4-3.8,2.6-7.7,3.8-11.6c0.7-2.4,3.9-4.5,2.1-7.5c0.3-0.3,1-0.7,0.9-1c-0.1-1.7-0.3-3.3-0.5-5
		c0-0.1-1.4,0-1.4,0c-0.1,1.7-0.8,4,0.1,4.9c0.4,0.4,0.7,0.8,0.9,1.1"/>
	<path class="st2" d="M1498.3,194.9c2.1,1.7,4.4,3.3,6.4,5.1"/>
	<path class="st2" d="M379.4,200c5-5.5,10.7-10.2,17.5-13.6c13.7-6.9,25.8-16,36.4-27c4.4-4.6,10.1-5.7,15.6-7.3
		c4.4-1.2,8.6,0.8,12.5,3.3c2,1.3,3.7,4.4,7.1,2.2c0.2-0.1,2,2.1,2.9,3.3c7.2,9.5,9.8,20.8,12.5,32c0.6,2.3,1.1,4.7,1.6,7.1"/>
	<path class="st2" d="M630.9,164.9c5.2,2.1,5.9,7.5,8.5,11.5c2.4,3.7,4.7,7.5,6.5,11.5c2.5,5.3,6.2,9.1,10.7,12"/>
	<path class="st2" d="M134.5,8.5c1.5-0.8,3.2-1.5,4.4-2.6c1.1-0.9,1.5-2.6,2.6-3.4c1.2-0.8,2.3-1.7,3.4-2.5"/>
	<path class="st2" d="M466.4,158.9c9.8,12,12.5,26.6,15.4,41.1"/>
	<path class="st2" d="M1329.3,153.9c-1.7-1.8-3.8-1.2-4.4,0.5c-1,3.1-3.1,2.3-5.1,2.5c-11.5,1.1-21.5-3.1-31-9
		c-9.9-6.1-15-6-22.9,5.6c-3.9,5.6-7,11.7-10.6,17.4c-0.8,1.2-2.3,2-3.4,3"/>
	<path class="st2" d="M1455.3,194.4c0.2,2.5,1.4,4.1,2.9,5.6"/>
	<path class="st2" d="M573.9,171.4c1-1,1.9-2.8,3-2.9c6.1-0.6,12.7-2.2,18.4-0.8c13.1,3.1,19.5,18.3,15,31.2
		c-0.1,0.4-0.3,0.7-0.4,1.1"/>
	<path class="st2" d="M1786.3,144.4c-5.2-1.2-10.3-2.6-15.5-3.4c-3.3-0.5-6.7,0-10-0.1c-10.4-0.4-19.9,8.1-20,19.5
		c-0.1,4.7-0.6,9.3-1,14"/>
	<path class="st2" d="M80.5,193.9c-1.4,2-2.6,4.1-4,6.1"/>
	<path class="st2" d="M2,117.4c6.2,9.6,14.7,16.9,23.5,23.9c10.5,8.3,15,19.2,16.5,32c1.1,9.4,2.4,19,8.7,26.6"/>
	<path class="st2" d="M374.3,200c2.4-2.3,5.2-4.3,7.8-6.5c0.8-0.6,2.3-0.4,3.4-0.6"/>
	<path class="st2" d="M81.4,200C81.4,200,81.4,199.9,81.4,200c0.9-1.6,1.4-3.4,2.1-5.1"/>
	<path class="st2" d="M2,123.4c6.5,6.8,12.3,14.5,19.7,20.3c10.6,8.3,15.3,19,17.4,31.7c1.4,8.5,2.5,17,7.1,24.6"/>
	<path class="st2" d="M1785.8,145.4c-4.8-0.3-9.7-0.6-14.5-1c-15-1.3-24.7,3.3-27.5,20c-0.6,3.7-1.3,7.3-2,11"/>
	<path class="st2" d="M558.9,184.9c-0.7,0.7-1.8,1.3-1.9,2c-0.1,0.8,0.9,1.7,1.4,2.5c0.5-0.7,1.3-1.3,1.5-2c1.8-9,7.1-14,16.5-15.5
		c4-0.7,8-1.9,12-1.9c13,0,21.2,10.6,19.3,23.9c-0.3,2.2-0.9,4.2-1.7,6.1"/>
	<path class="st2" d="M1832.3,155.9c1.2,0.2,2.5,0,3.5,0.6c14.9,8.9,24.7,21.3,27.1,38.9c0.2,1.5,0.5,3.1,0.8,4.6"/>
	<path class="st2" d="M1819.8,150.9c-0.8-0.7-1.6-1.6-2.5-1.9c-0.5-0.1-1.3,0.9-2,1.4c0.7,0.5,1.3,1.4,2,1.4c2.7,0.2,5.4-0.4,8,0.2
		c2.2,0.5,4.2,2,6,3.4c2.5,2,4.5,4.6,7.1,6.4c12.5,8.7,18,21.4,21.5,35.5c0.2,0.9,0.4,1.7,0.7,2.6"/>
	<path class="st2" d="M1.5,6c9.8,5.7,19.6,11.5,29.5,16.9c2.3,1.3,5.3,1.4,7.9,2.1c0.9,0.2,1.7,0.7,2.5,1c-0.3,0.5-0.6,1.2-1,1.4
		c-0.6,0.3-1.4,0.3-1.9,0c-0.6-0.3-1-0.9-1.5-1.4"/>
	<path class="st2" d="M557.5,200c-1.4-3.4-1.8-7.2-1.1-11.1"/>
	<path class="st2" d="M1424.5,200c0.4-0.2,0.8-0.5,1.2-0.7c0.8-0.5,0.7-2.5,1.1-3.9"/>
	<path class="st2" d="M558.9,189.9c0,3.5,0,7,0,10.5"/>
	<path class="st2" d="M467.9,156.9c-5.4-7.4-15.4-10.3-23.5-6.4c-1.5,0.7-2.7,2.3-4,3.4"/>
	<path class="st2" d="M1428.3,186.9c-0.3,2.3-0.7,4.7-1,7"/>
	<path class="st2" d="M89.5,163.9c-1.8,1.7-1.5,3.3-0.7,5.6c0.7,2.1,2.1,4.6-0.6,7.1c-1.4,1.3-1.2,4.5-1.6,6.8
		c-0.3,1.3-0.3,2.7-0.5,4c-0.5-0.3-1.5-0.8-1.4-1c0.4-1.2,0.9-2.4,1.4-3.5"/>
	<path class="st2" d="M1396.3,114.9c6.7,1.7,13.3,3.3,20,5"/>
	<path class="st2" d="M1792.8,146.4c2,2,4.2,2.1,6.5,0.5"/>
	<path class="st2" d="M1811.3,148.4c-1.5-0.3-3.2-1.3-4.5-0.9c-3,1-5.6,2.9-7.7-1.5c-0.4-0.9-3.5-0.7-5.3-0.5c-2,0.2-4,1-6,1.3
		c-0.4,0.1-1.4-0.9-1.4-1.4c0-0.5,1-1.5,1.4-1.4c1.7,0.3,3.3,0.9,5,1.4"/>
	<path class="st2" d="M1367.3,0c13.7,8,29,9.3,44.5,7.7c9.7-1,19-3.8,27.8-7.7"/>
	<path class="st2" d="M1424.8,123.9c-0.6-2.3-1.4-4.4-4.5-3"/>
	<path class="st2" d="M413.4,151.4c-2.5-0.1-4.3,0.7-4.5,3.5"/>
	<path class="st2" d="M1805.8,147.4c-1.7-1.8-3.5-2.1-5.5-0.5"/>
	<path class="st2" d="M1474.3,181.9c1.5,0.5,3,1,4.5,1.5c1.2,0.4,2.3,1,3.5,1.5c1,0.4,2,0.7,3,1c-0.3,0.5-0.6,1.4-1,1.4
		c-1,0.1-2-0.2-3-0.5c-0.2-0.1-0.3-0.6-0.5-1"/>
	<path class="st2" d="M1805.8,148.4c1.7,1.8,3.5,2.1,5.5,0.5c1.4-1.1,2.9-1.9,4,0.5"/>
	<path class="st2" d="M1461.8,0c0.7,0.7,1.3,1.3,2,2c0-1,0-2,0-3"/>
	<path class="st2" d="M83.5,186.9c0.2,1,0.3,2,0.5,3c0.2,1,0.3,2,0.5,3"/>
	<path class="st2" d="M1498.8,191.9c-0.7,0.7-1.3,1.3-2,2c0-1,0-2,0-3"/>
	<path class="st2" d="M1456.8,3c0.7,0.7,1.3,1.3,2,2c0-1,0-2,0-3"/>
	<path class="st2" d="M1484.8,188.4c3.7,1.7,7.3,3.3,11,5"/>
	<path class="st2" d="M82,191.9c0.7,0.7,1.3,1.3,2,2c-0.5,0.3-1,0.7-1.5,1c0.2-1-3.3-0.6-1-2.5"/>
	<path class="st2" d="M1302.2,0c3.7,3.5,7.9,6.5,13.1,8.4c16.1,6.1,32.2,12.5,48.6,17.8c9.7,3.1,20,4.4,29.9,6.7
		c9.6,2.3,19.5,1.9,29,0.7c12.2-1.6,23.4-7.1,34-13.3c14.7-8.6,29.9-15.8,46.2-20.4"/>
	<path class="st2" d="M1240.5,0c11.7,4.6,23.2,9.8,34.9,14.4c10.3,4,14.2,12.7,16.3,22.1c3.4,14.9,10.3,27.2,22.1,37
		c7.1,5.9,13.6,12.4,20.6,18.4c7.8,6.8,17.3,9.8,27.5,9.9c9.7,0.1,19.3-0.5,29-0.9c15.2-0.7,28.5,4.6,40.4,13.2
		c9.6,6.9,18.6,14.7,27,23c13.1,12.9,28.1,20.6,46.6,22c20.5,1.5,39.6,7.2,56.5,19.4c11.6,8.3,25,12.7,37.9,18.2
		c2.4,1,4.8,2.2,7.1,3.4"/>
	<path class="st2" d="M1697.9,0c4.5,9.3,8.7,18.8,12.5,28.4c7.9,20.3,21.7,35.1,42.4,43.1c3.4,1.3,6.5,3.7,9.5,5.9
		c3.4,2.5,3.5,5.9,0.5,8.9c-1.5,1.5-3.1,3.2-5,4c-6.6,2.7-13.2,5.6-20,7.5c-15.2,4-30.8,5.5-46.4,6.3c-11.9,0.6-16.4,5.4-15.3,15.3
		c0.8,6.5,3.5,13,6.4,19c5.7,11.7,12.6,22.8,18.3,34.6c4.3,9.1,4.9,18.8,1.4,27"/>
	<path class="st2" d="M1321.9,0c22.4,13.1,45.1,25.6,71.9,28.1c10.9,1,21.8,1.6,32.5-0.8c13-2.8,24.6-9.2,36-15.9
		c7.1-4.2,14.4-8.1,21.8-11.4"/>
	<path class="st2" d="M1219.8,0c6.3,2.8,12.4,6.4,18,11c1,0.8,2.1,1.6,3,2.5c9.3,9.5,18.7,18.8,29.9,26.1c3.4,2.3,6,6,8.5,9.4
		c8.7,11.7,18.7,21.9,30,31c8.2,6.6,16.2,13.5,24.6,19.9c6.7,5.1,14.6,7.1,22.9,7c10.3-0.1,20.7-0.3,31-1c19.3-1.4,35.3,6,49.5,18.1
		c8.6,7.4,17,15,25,23c11.2,11.1,25.2,15.5,40.1,17.9c12.6,2.1,25.4,3.6,36.9,9.6c7.4,3.9,14.7,8.2,21.5,13
		c7.1,5,14.4,9.3,22.4,12.5"/>
	<path class="st2" d="M1704.6,0c0.2,0.5,0.5,1,0.7,1.5c6.9,14.4,13.1,29.2,25,40.5c15.8,15.1,31.7,17.6,50.9,9.3
		c13.7-6,27.5-10.1,42.6-9.3c21.1,1.1,28.8,9.1,33.9,26.5c2.8,9.4,4.6,19,5.4,29c0.4,6-0.2,11.4-1.8,17c-1.3,4.7-4.5,7.2-9,9.1
		c-6.8,2.9-13.4,0.9-20-0.2c-13.9-2.3-27-7.1-39.5-13.4c-7-3.5-14.4-5.2-22.5-5.2c-11.1,0-21.8,1.8-32.5,4.3
		c-11.5,2.7-22.8,6.1-34,10c-9.5,3.3-12.2,9.7-10.1,19.4c2,9.3,7.1,17.1,11.1,25.5c3.7,7.8,6.4,15.6,6.1,24.5
		c-0.2,4.2-1,8.1-2.3,11.6"/>
	<path class="st2" d="M403.5,0c5.4,11.8,6.9,24.4,5.3,37.4c-0.6,5-2.7,9.6-6.3,13.6c-5.3,5.9-12,6.4-19.1,6
		c-15.3-0.8-26.8-13.4-27.8-25.5c-0.6-6.8,0-13.2,1.5-19.5c1-4.2,2.2-8.3,3.9-12"/>
	<path class="st2" d="M654.8,0c0.3,3,1.5,5.8,4.5,8.1c2.9,2.3,12,2.4,14.6,0.4c3.3-2.5,4.9-5.3,5-8.5"/>
	<path class="st2" d="M1072.1,0c6,7,8.8,16.2,6.6,24.9c-3.4,14-10.9,25.7-21.9,35c-10.4,8.9-23.3,12.2-36,16
		c-8.5,2.5-16.9,5.4-26,5.1c-7.1-0.2-9.9-2.8-10-10c-0.1-10.2,3.3-19.7,8.7-27.9c9.9-14.8,21.2-28.7,31.7-43.1"/>
	<path class="st2" d="M620.4,0c-1,8-2.4,16-4.1,23.9c-1.4,6.8-6,11.7-11.3,16.1c-6.3,5.1-12.9,10.2-18.4,16.1
		c-6.3,6.7-4.7,16.4,4.8,21.5c9.4,5,18.8,3.7,28,0.8c8-2.5,15.6-6.6,23.6-9.2c5.1-1.7,10.7-3.2,15.9-2.9
		c16.6,0.8,30.9-4.9,44.6-13.6c10.8-6.9,22.5-12,34.4-16.7c11.6-4.6,22.8-10.4,29.6-21.8c2.6-4.4,4.5-9.1,5.9-14"/>
	<path class="st2" d="M395.7,0c0.3,0.5,0.6,0.9,0.9,1.4c5.3,9.3,7.3,19.1,5.4,29.5c-1.3,6.8-4.5,12.5-11.4,15
		c-12.8,4.7-27-7.3-27.5-19.5c-0.1-2.8-0.3-5.7,0-8.5c0.7-6.9,2.6-13.1,6.4-18"/>
	<path class="st2" d="M1658.8,0c0.2,0.1,0.3,0.2,0.5,0.4c8.8,6.5,14.3,18.1,9.9,29.1c-3,7.5-7.7,13.8-13.9,19.1
		c-6.7,5.8-13.3,11.7-19.5,18c-5.4,5.5-9.3,12.4-10.9,20c-3.1,14.1-1.1,27.6,7.9,39.5c9.1,12,18.7,23.8,27.3,36.1
		c4,5.7,7.4,12.3,9.4,19c1.9,6.4-2,12.8-10.2,12.8c-3.7,0-7.9-0.7-10.9-2.5c-7-4.3-13.6-9.3-20.1-14.3c-10.9-8.4-21.5-17.4-34-23.4
		c-12-5.8-23.9-11.6-36-16.9c-8.1-3.6-16.6-6.6-25-9.5c-11.3-4-23.2-4.6-35-6.3c-21.7-3.2-39.7-14.4-53.9-30.9
		c-7.9-9.2-8.1-16.6-1.6-24.3c6.9-8.1,14.9-15.2,24.9-19.7c9.5-4.3,18.5-4.6,27,2.1c3,2.4,5.8,5.2,8.5,8c7.4,7.8,17.1,9.7,28.1,4.6
		c7.3-3.4,13.3-8.2,18.9-13.7c9.9-9.8,20-19.4,31.5-27.5c10.7-7.6,21.8-14.5,33.8-19.4"/>
	<path class="st2" d="M1161.4-2c-1.8,0.3-3.7,0.5-5.5,1c-8.1,2.5-14.6,6.7-17,15.5c-1.9,7-1.8,14.1-0.4,21
		c2.4,10.9,9.8,18.2,19.9,21.9c13.5,4.8,27.4,7.4,42,4.8c8.4-1.5,14.8-5.8,18.4-13.2c5-10.2,7.8-21,0.6-31.4
		c-4.5-6.5-10.8-10.8-18.4-13.7c-12.7-4.8-25.6-6.4-39-5.9"/>
	<path class="st2" d="M1173.4,4c-5,1.5-10.3,2.4-14.9,4.6c-8.3,3.9-12.7,16.5-9,24.9c4.9,11.4,14.3,16.5,26,18.5
		c7.7,1.3,15.3,0.6,22.5-2.1c8.4-3.2,17.1-12.7,15.1-24.4c-0.8-4.5-2.7-8.2-6.1-10.9c-6.5-5.4-14.1-8.5-22.5-9.5
		c-3.5-0.4-7-0.7-10.5-1"/>
	<path class="st2" d="M1044.4,12c-9.6,2.8-16.4,9.6-22.9,16.6c-4.7,5.1-8.5,11-12,17c-3,5.1-1.8,11.1,2.5,12.7
		c3.2,1.3,7.5,1.4,10.9,0.6c15.3-3.8,27.7-11.7,33.9-26.9c1.3-3.1,2.6-6.9,1.9-9.9c-1.6-6.7-3.8-11-13.8-10.1"/>
	<path class="st2" d="M1615.3,36c-11.5,3.6-23,7.2-32.4,15.1c-4.9,4.1-9,9.3-13.6,13.9c-6.9,6.8-14,13.4-21,20c-1.4,1.3-2.8,2.6-4,4
		c-5.2,6.5-4.5,13.9,2,19.5c12.8,10.9,27.6,16.2,44.5,15.5c5.4-0.2,10-3.8,11-8.5c1.4-6.8,3-13.6,4-20.5c2.1-15.9,6.1-31.1,14.5-45
		c1.4-2.3,2.7-4.9,3.5-7.5c1.5-4.9,0.3-6.4-4.9-6.5c-1,0-2,0-3,0"/>
	<path class="st2" d="M1815.8,58.5c-5,0.8-10.3,0.4-14.5,4c-3.4,2.9-7.3,5.6-9.8,9.1c-2.2,3-2.7,6.9-0.3,10.9
		c7.6,12.7,16.7,23.9,31.1,28.7c5.9,2,12.2,4,19,1.8c6.2-2.1,10.5-6.4,10.4-13.1c-0.3-16.9-6.7-30.6-22.5-38.4
		c-3.9-1.9-8.6-2.1-12.9-3.1"/>
	<path class="st2" d="M1582.3,85c-2.7,2.3-5.7,4.4-7.9,7.1c-2.7,3.3-2.2,7.3,0.4,8.9c3.2,2,8.3,0.9,10.6-2.4
		c2.3-3.4,2.5-6.9,2.4-10.6c-0.1-3.6-2.8-2.9-5-3"/>
	<path class="st2" d="M1077.9,109.9c3.7,0.3,7.3,0.8,11,1c15,0.8,24.4,9.4,29.3,22.6c3.6,9.8,5.6,20.2,7.6,30.4
		c1.7,8.8,1.9,17.7-0.4,26.5c-0.8,3.3-1.9,6.5-3.1,9.6"/>
	<path class="st2" d="M965,200c0-1.5,0-3,0.1-4.6c0.6-9.1,4-18,5.7-27c4.5-24.9,21.7-38.5,42.5-49c12.1-6.1,25.4-6.4,38.5-7.5
		c7.3-0.6,14.7-0.7,22-1.1c1.2-0.1,2.3-0.6,3.5-1"/>
	<path class="st2" d="M429.9,0c1.7,6.2,3.4,12.3,5.1,18.5c3.1,11.1,5.3,22.3,5,34c-0.3,13.2-5.3,24-15.6,31.9
		c-8.2,6.3-16.8,11.9-25.5,17.5c-7.7,5-16.5,8-25.5,7.8c-9.9-0.2-19.7-2.1-29.5-3.8c-15.1-2.6-29.3-0.9-42,8.1
		c-6.6,4.7-12.7,10.2-19,15.4c-6.4,5.3-12.6,10.9-21,13c-11,2.7-20.7-4.6-17.9-16c1.3-5.1,3.2-10.5,6.5-14.4
		c8.8-10.1,18.6-19.3,27.7-29.2c3.8-4.2,7.1-9.1,10-14c2.7-4.6,5.3-9.4,7-14.5c4.5-13.1,13.5-23.4,20.5-35
		c3.7-6.1,6.4-12.4,6.7-19.4"/>
	<path class="st2" d="M1076.9,123.9c4.2,0.5,8.5,0.4,12.5,1.6c10.2,3,17.2,9.9,20.4,19.9c2,6.3,2.8,12.9,4.1,19.5
		c2.4,12.2,1.5,23.9-2.7,35.1"/>
	<path class="st2" d="M985,200c-0.1-0.8-0.1-1.7-0.2-2.6c-0.3-13.3,2.9-25.8,7.7-38c5.6-14.5,16.2-24.1,31.4-27.4
		c12.4-2.7,25-4.2,37.5-6.1c5-0.8,10-1.3,15-2"/>
	<path class="st2" d="M782.8,0c-2.8,12.9-7,25.3-15.4,36c-4,5.1-8.2,10.2-11.9,15.5c-3.7,5.3-2.7,8.4,3.5,9.8
		c7.9,1.8,15.9,3.1,24,3.5c16.7,0.9,30,7.8,40.5,20.7c5.2,6.3,9.5,13.5,15.1,19.4c15.1,15.8,34.3,22.3,55.9,22.1
		c10.7-0.1,19.5-3.9,24-14.5c2.5-5.8,4.5-11.9,7.6-17.4c5.1-9.1,11-17.7,16.4-26.6c7.4-12.3,14.7-24.6,22-37
		C970.4,21.2,976,10.7,981,0"/>
	<path class="st2" d="M614.1,0c-0.5,5.9-1.8,11.9-3.9,17.4c-3.5,9.3-11.4,15-18.8,21.1c-5.7,4.7-11.9,9.3-16.4,15.1
		c-10.9,14.1-3.9,27.3,10.4,32.8c8.3,3.2,16.9,4.8,26,2.7c9.4-2.2,19-3.6,28.5-5.6c9.5-2,19-1.7,28.5,0c7.1,1.2,14.3,2,21.5,2.5
		c8.8,0.6,16.2,3.2,20.5,11.6c9.1,17.6,22.7,31,39,42c4.3,2.9,8.6,6,12.5,9.5c6.7,6.1,9.1,14.2,10.1,22.9c1,9.3,1.3,18.8,2.9,28.1"
		/>
	<path class="st2" d="M1121.3,0c-0.5,6.7-1.2,13.3-1.4,20c-0.3,10.3-0.5,20.7,0.1,31c0.4,7.7,2.9,15.1,10.4,18.9
		c7.3,3.7,15,6.7,22.4,10.1c9.6,4.3,16.4,11,18,22c1,6.5,2.4,13,3.4,19.5c1.5,9.3,1.8,18.7,0,28c-1.9,9.9-4.4,19.8-3.5,30
		c0.6,6.9,1.3,13.7,2.1,20.6"/>
	<path class="st2" d="M1071.9,130.9c2.7,0,5.3-0.1,8,0c10.4,0.3,18.7,4.3,23.5,14c3.3,6.6,4.6,13.7,5.7,21
		c1.7,11.9,1.2,23.4-3.7,34.1"/>
	<path class="st2" d="M993.5,200c-0.4-1.9-0.6-3.9-0.6-6.1c-0.3-9.7,2.3-19,5.5-28c4.1-11.4,11.5-20.1,23-24.4
		c6-2.3,12.6-3.3,19-4.6c10.3-2.1,20.7-4,31-6"/>
	<path class="st2" d="M836.9,138.9c10.2,0.7,20.3,1.2,30.5,2.1c12.8,1.1,25.3,3.9,37.5,8c13.2,4.5,23.3,12.6,25.4,27.4
		c1,6.6,1.7,13.3,1.5,20c0,1.2-0.2,2.4-0.3,3.6"/>
	<path class="st2" d="M790.8,200c-3.6-9.9-3.7-20.1-1.3-30.5c1.5-6.5,3.5-12.7,8.8-17.6c5.2-4.8,11.1-7.3,17.6-8.8
		c6.8-1.6,13.7-2.7,20.5-4.1"/>
	<path class="st2" d="M799.4,200c-1.3-2.8-2.4-6-3-9.6c-2.1-11.9,2.8-26.6,14.5-33c8.1-4.4,17-6.2,26-7.5c4.5-0.7,9-1.3,13.5-2"/>
	<path class="st2" d="M850.9,147.9c10.5-0.4,20.8,0.7,31,3.1c16.5,3.9,33,12.7,36.6,33.9c0.9,5,0.4,10.3-1.5,15.1"/>
	<path class="st2" d="M151.5,153.9c-6.1,1.8-11,4.6-12.6,11.5c-1.9,8.1,3.8,13.7,10.1,14.4c9.2,1.1,17.5-1.4,24-8.4
		c4.6-5,4.2-9.1-1.5-13c-5.9-4-12.6-4.9-19.5-4.5"/>
	<path class="st2" d="M422.6,0c0.1,0.3,0.2,0.6,0.3,1c4.6,15.6,8.8,31.4,8,48c-0.6,11.9-5,21.9-14.5,29.5
		c-17.4,13.9-37.4,17.5-59,14.6c-14.5-1.9-29-3.5-43.5-5c-6.9-0.7-8.9-3-8-10.1c1-8.6,4.6-16.3,9.1-23.5
		c9.2-14.7,16.6-30.1,20.3-47.1c0.5-2.5,1-4.9,1.4-7.4"/>
	<path class="st2" d="M858.9,155.9c7.5,1,15.2,1.3,22.5,3.2c11,2.9,19.7,9.6,23.9,20.4c3.2,8.1,1.9,15.2-2.2,20.5"/>
	<path class="st2" d="M810.3,200c-0.2-0.2-0.3-0.4-0.5-0.6c-6.3-7.8-6.4-19.4,0-27c7.7-9.1,18.7-11.2,29.5-13.5
		c6.3-1.3,12.7-2.1,19-3.1"/>
	<path class="st2" d="M1071.4,159.9c-9.1,2.8-16.5,8.3-23,15c-2.6,2.7-2.3,5.6,1,7.4c8.1,4.3,16.5,7.3,26,6.7c3.5-0.2,5.8-1.8,8-4.1
		c4.4-4.8,5.4-15.6,0-22c-3-3.5-7.3-3.2-11.5-3"/>
	<path class="st2" d="M439,0c1.5,6.2,3.1,12.3,4.9,18.5c4,14,8.6,27.9,7.2,43c-0.9,9.8-4.6,18.4-11.8,24.3
		c-13.9,11.5-28.8,21.9-43.3,32.7c-5.3,3.9-11.3,5.4-18,5.6c-11.4,0.5-22-3.3-33-4.6c-9.9-1.1-19.6-1.2-29,3.4
		c-10.6,5.1-18.2,13.5-25.3,22.2C278.8,159.6,264,165,246,161.9c-10.4-1.8-21.1-11.1-21.1-24.9c-0.1-10.9,3.9-20.1,10.8-27.9
		c8.4-9.6,17.4-18.6,26.5-27.5c6.1-6,11.3-12.6,14.4-20.6c5.2-13.3,6.9-27.1,5.7-41.5c-0.7-8.3-3.9-14.6-10.4-19.5"/>
	<path class="st2" d="M700.5,0c1.6,6.9-1.4,12.5-8.5,18.5c-6.5,5.5-14.2,7.7-22.1,9.4c-12.6,2.7-26.7-7-29-19.4
		c-0.5-2.9-0.8-5.7-0.8-8.5"/>
	<path class="st2" d="M483.8,0c0.3,3.6,1.4,7.3,3.1,11c4.5,9.6,10.8,17.4,21.1,20.9c10.9,3.8,20.8,1.1,30.5-4.4
		c10.2-5.8,19-13.1,27-21.5c1.9-2,3.4-4,4.4-6"/>
	<path class="st2" d="M415.3,0c0.2,0.7,0.4,1.3,0.6,2c4.4,15.5,8.2,31.1,5.1,47.5c-3.5,18.3-15.9,26-31,27.4
		c-13.4,1.2-26-2.2-38-8.3c-6.2-3.2-10.8-7.8-11.8-14.6c-0.9-6.5-1.1-13.5,0-19.9c1.9-11.4,4.8-22.7,7.6-34"/>
	<path class="st2" d="M1555.5,0c-6.2,4.8-13.1,8.5-21.2,10.4c-4.2,1-8.6,1.4-13,1.5c-22.3,0.3-43.2,5.4-62.6,16.9
		c-10.2,6.1-20.6,12.5-32.5,14.4c-7.8,1.2-16,0.9-24,0.1c-21-2.1-41.1-8.8-61.5-13.8c-5.2-1.3-10.4-2-16-0.8
		c-8,1.8-11.8,10.6-10.5,17.7c0.8,4.8,2.5,9.1,5.5,13c9,11.7,18.5,22.9,32.1,29.3c5.2,2.4,11.2,3.6,16.9,4c6.6,0.5,13.3-0.3,20-0.8
		c19.2-1.4,35.1,6.4,49.5,18c11.2,9.1,22.3,18.4,33.5,27.4c8,6.4,17.2,9.7,27.5,10.6c11.7,1.1,23.4,2.4,35,4
		c8.1,1.1,15.1,5.4,22,9.5c13.6,8.2,27.9,14.8,42.5,21c10.2,4.4,19.4,10.7,28.3,17.5"/>
	<path class="st2" d="M1687.4,0c7.7,15.1,12,31.4,11.5,49.5c-0.3,11-4.7,17.3-15,21c-9.1,3.3-18.6,5.8-26,12.5
		c-5.5,4.9-9.1,11.2-7.8,18.5c1.2,6.7,3.6,13.5,6.9,19.4c6.2,11.2,13.6,21.7,20.3,32.6c4.3,7.1,8.9,14.1,12.4,21.5
		c4.4,9.1,4.5,18,0.5,25"/>
	<path class="st2" d="M863.4,167.9c-8.3,1.5-16.8,2.2-24.5,6c-3.8,1.9-7.8,3.8-10.9,6.6c-4.9,4.4-4.4,9.5,1.5,12.7
		c4.9,2.7,10.5,5,15.9,5.4c10.3,0.8,20.8,1.3,30.9-0.1c10.9-1.5,15.5-9.2,11.9-17.6c-3.2-7.5-10.2-10.6-17.9-12
		c-2.2-0.4-4.3-0.7-6.5-1"/>
	<path class="st2" d="M631.2,0c-0.2,4.8-0.3,9.6-0.1,14.4c0.3,5.9,1.8,12.2,4.5,17.4c3.7,7.1,11.4,8.9,18.8,10.1
		c19,3,35.6-3.3,51-13.5c11-7.4,21.8-15.2,32.5-23c2-1.4,3.9-3.3,4.9-5.4"/>
	<path class="st2" d="M445.5,0c2.7,10.2,5.6,20.3,8.4,30.5c3.2,11.5,6.6,22.9,6,35c-0.5,9.1-3.6,17-11,22.4
		c-16.3,12-33.2,23.1-48.5,36.5c-8.5,7.4-19,9.7-29.9,8.5c-10.1-1.1-20-3.4-30-4.8c-10.4-1.5-19.9,1.1-27.4,8.5
		c-5.1,5.1-9.6,10.8-14,16.4c-6.4,8.1-14.4,13.5-24.5,16c-11.4,2.8-22.8,3.8-34.5,2c-11.2-1.7-23.6-12.8-24.9-23.6
		c-1.1-9.6,0-19.2,4.4-28c5-9.8,12-18.1,19.5-26c6.4-6.7,13.1-12.9,19.4-19.6c8.2-8.6,12.3-19.3,12.4-31c0.1-11.8-3.3-22.6-12.3-31
		c-3.4-3.2-6.8-6.5-10-10c-0.6-0.6-1.1-1.3-1.7-1.9"/>
	<path class="st2" d="M862.4,177.9c-3.2,1.5-6.6,2.6-9.4,4.6c-2.1,1.5-1.7,4.1,0.9,5.3c5.8,2.9,12,2.9,17.9,0.9
		c3.8-1.3,4.1-6.3,0.5-8.2c-2.8-1.5-6.3-1.8-9.4-2.6"/>
	<path class="st2" d="M1676.8,0c0.1,0.2,0.3,0.4,0.4,0.6c6.7,10.3,9.7,21.9,6.7,34.4c-2.3,9.6-8.2,16.4-16,22
		c-8.2,5.9-16.8,11.2-23.5,19c-7.3,8.5-10.2,17.9-7.6,29c2.4,9.9,8,17.9,13.6,26c7.8,11.2,15.8,22.2,23.4,33.6c2.8,4.2,5,8.8,7,13.5
		c3.8,8.5,2.2,16.8-3.4,22"/>
	<path class="st2" d="M1578.3,0c-10.7,10.5-22.6,19.5-35,28c-11,7.6-22.1,9.8-34.6,3.5c-12-6-24.7-5.2-36.3,0.1
		c-11.6,5.3-22.3,12.6-33.6,18.7c-9.9,5.4-20.2,9.6-32,6.6c-5.8-1.5-11.7-3-17.5-4.5c-13.5-3.5-26.9-7.1-41-6.5
		c-8.1,0.3-11.6,4.9-7.9,12c6.2,11.8,18,25,35.9,24c7.3-0.4,14.7-1.6,22-1.9c9.2-0.4,17.7,2.2,25,8c14.9,11.8,29.6,23.7,44.5,35.4
		c7.7,6.1,16,11.4,26,12.9c6.1,0.9,12.3,1.6,18.5,1.5c17.1-0.2,32.7,4.5,47.6,13c9.5,5.4,19.6,9.9,29.4,14.6
		c16.8,8,31.9,18.6,46.5,30c2.1,1.7,4.2,3.2,6.5,4.6"/>
	<path class="st2" d="M1085.6,0c4.3,7.5,5.4,16.1,3.7,25.5c-1.8,9.6-5.9,18.2-10.9,26.5c-8.8,14.4-20.7,24.1-37.5,28.1
		c-10.5,2.5-20.7,6.4-31,9.9c-10.2,3.4-20.3,7.2-30.5,10.4c-5.3,1.7-10.2-0.3-11.8-5c-1-2.8-0.8-6.4-0.1-9.4
		c4.6-19.8,12.9-38,23.9-55c6.7-10.3,13.3-20.6,19.9-31"/>
	<path class="st2" d="M1074.4,151.9c-12.9,2.5-23.9,9.9-36,14.4c-5.1,1.9-9,5.2-12.4,9.1c-3.4,3.9-4.2,8.7-2.4,13.4
		c1.9,5,6.6,5.9,11.4,6c2.5,0.1,5-0.1,7.5,0c10.5,0.6,21,1.2,31.5,2c10.2,0.8,17.7-5.9,18.8-17c0.5-5.4-0.2-11.1-1.5-16.4
		c-1.6-6.8-8.6-12.3-16.4-11.5"/>
	<path class="st2" d="M1791.8,191.9c3.2,0.2,6.5-0.3,9.5,0.6c4.9,1.6,8.5,4.1,11.2,7.4"/>
	<path class="st2" d="M1791.3,191.9c-5.6,1.5-9.9,4.4-12.9,8.1"/>
	<path class="st2" d="M1792.8,195.9c5.4-0.7,9.8,1,13.5,4.1"/>
	<path class="st2" d="M1792.3,195.9c-3.1,0.9-5.8,2.3-7.9,4.1"/>
	<path class="st2" d="M477.9,0c0.3,2.5,0.9,5,1.8,7.4c3.7,10.7,9.4,20.8,19.4,26.9c13.1,8,27,6.3,39.3-1.2
		c11.6-7.1,22-16.2,32.5-24.9c2.5-2.1,4.5-5.2,6-8.3"/>
	<path class="st2" d="M1096.8,0c3.9,9.1,4.1,19.3,1.4,30.4c-2.4,9.8-6.2,19.3-10.5,28.5c-5.3,11.3-12.3,21.7-24.9,26
		c-7.6,2.6-15.6,4.5-23.5,6c-15.1,3-29.4,8.1-43,15.5c-8.8,4.8-17.7,9.6-27,12.9c-13.5,4.8-21.1-2.4-20.5-14.8
		c0.3-6.1,1.9-11.6,4.6-17c10-20,18.7-40.7,31.1-59.4c6.1-9.1,11.6-18.4,16.6-28"/>
</g>
<g id="Calque_4">
	<g class="st3">
		<path class="st4" d="M761.3,62.6v47.1h22.2v11h-33.6V62.6H761.3z"/>
		<path class="st4" d="M820.2,84.1v-4.9h10.7v41.5h-10.7v-4.9c-3.2,4-7.7,6.1-13.5,6.1c-5.5,0-10.3-2.1-14.3-6.3
			c-3.9-4.3-5.9-9.5-5.9-15.6c0-6.1,2-11.3,5.9-15.5c4-4.3,8.7-6.4,14.3-6.4C812.5,78.1,817,80.1,820.2,84.1z M800.4,108.4
			c2.2,2.2,4.9,3.2,8.2,3.2c3.3,0,6.1-1.1,8.2-3.2c2.2-2.2,3.3-5,3.3-8.5c0-3.4-1.1-6.2-3.3-8.4c-2.2-2.2-4.9-3.3-8.2-3.3
			c-3.3,0-6.1,1.1-8.2,3.3c-2.2,2.2-3.2,5-3.2,8.4C797.2,103.4,798.3,106.2,800.4,108.4z"/>
		<path class="st4" d="M864.8,78.1c5.6,0,10.3,2.1,14.3,6.4c4,4.3,6,9.4,6,15.5c0,6.2-2,11.4-6,15.6c-3.9,4.2-8.6,6.3-14.3,6.3
			c-5.8,0-10.3-2-13.4-6.1v4.9h-10.7V62.6h10.7v21.5C854.5,80.1,858.9,78.1,864.8,78.1z M854.6,108.4c2.2,2.2,4.9,3.2,8.2,3.2
			c3.3,0,6.1-1.1,8.2-3.2c2.2-2.2,3.3-5,3.3-8.5c0-3.4-1.1-6.2-3.3-8.4c-2.2-2.2-4.9-3.3-8.2-3.3c-3.3,0-6.1,1.1-8.2,3.3
			c-2.2,2.2-3.2,5-3.2,8.4C851.3,103.4,852.4,106.2,854.6,108.4z"/>
		<path class="st4" d="M927.9,115.6c-4.2,4.2-9.4,6.3-15.6,6.3c-6.2,0-11.4-2.1-15.6-6.3c-4.2-4.2-6.3-9.4-6.3-15.6
			c0-6.1,2.1-11.3,6.3-15.5c4.3-4.3,9.5-6.4,15.6-6.4c6.1,0,11.3,2.1,15.6,6.4c4.3,4.3,6.4,9.4,6.4,15.5
			C934.3,106.1,932.2,111.3,927.9,115.6z M904.3,108.2c2.2,2.2,4.8,3.2,8.1,3.2c3.2,0,5.9-1.1,8.1-3.2c2.2-2.2,3.2-4.9,3.2-8.2
			s-1.1-6.1-3.2-8.2c-2.2-2.2-4.8-3.2-8.1-3.2c-3.2,0-5.9,1.1-8.1,3.2c-2.1,2.2-3.2,5-3.2,8.2C901.1,103.2,902.2,106,904.3,108.2z"
			/>
		<path class="st4" d="M952.6,79.2v7.1c0.9-2.6,2.5-4.6,4.8-5.9c2.3-1.4,4.9-2,7.8-2v12c-3.3-0.4-6.2,0.2-8.8,2
			c-2.5,1.7-3.8,4.6-3.8,8.5v19.8h-10.7V79.2H952.6z"/>
		<path class="st4" d="M1001.4,84.1v-4.9h10.7v41.5h-10.7v-4.9c-3.2,4-7.7,6.1-13.5,6.1c-5.5,0-10.3-2.1-14.3-6.3
			c-3.9-4.3-5.9-9.5-5.9-15.6c0-6.1,2-11.3,5.9-15.5c4-4.3,8.7-6.4,14.3-6.4C993.7,78.1,998.2,80.1,1001.4,84.1z M981.6,108.4
			c2.2,2.2,4.9,3.2,8.2,3.2c3.3,0,6.1-1.1,8.2-3.2c2.2-2.2,3.3-5,3.3-8.5c0-3.4-1.1-6.2-3.3-8.4c-2.2-2.2-4.9-3.3-8.2-3.3
			c-3.3,0-6.1,1.1-8.2,3.3c-2.2,2.2-3.2,5-3.2,8.4C978.4,103.4,979.5,106.2,981.6,108.4z"/>
		<path class="st4" d="M1045.5,79.2v10.3h-9.4v17.3c0,1.4,0.4,2.5,1.1,3.2c0.7,0.7,1.8,1,3.2,1.1c1.4,0.1,3.1,0.1,5.1,0v9.7
			c-7.2,0.8-12.4,0.2-15.5-2c-3.1-2.2-4.6-6.2-4.6-11.9V89.5h-7.2V79.2h7.2v-8.4l10.7-3.2v11.6H1045.5z"/>
		<path class="st4" d="M1087.2,115.6c-4.2,4.2-9.4,6.3-15.6,6.3c-6.2,0-11.4-2.1-15.6-6.3c-4.2-4.2-6.3-9.4-6.3-15.6
			c0-6.1,2.1-11.3,6.3-15.5c4.3-4.3,9.5-6.4,15.6-6.4c6.1,0,11.3,2.1,15.6,6.4c4.3,4.3,6.4,9.4,6.4,15.5
			C1093.6,106.1,1091.5,111.3,1087.2,115.6z M1063.5,108.2c2.2,2.2,4.8,3.2,8.1,3.2c3.2,0,5.9-1.1,8.1-3.2c2.2-2.2,3.2-4.9,3.2-8.2
			s-1.1-6.1-3.2-8.2c-2.2-2.2-4.8-3.2-8.1-3.2c-3.2,0-5.9,1.1-8.1,3.2c-2.1,2.2-3.2,5-3.2,8.2C1060.4,103.2,1061.4,106,1063.5,108.2
			z"/>
		<path class="st4" d="M1111.8,79.2v7.1c0.9-2.6,2.5-4.6,4.8-5.9c2.3-1.4,4.9-2,7.8-2v12c-3.3-0.4-6.2,0.2-8.8,2
			c-2.5,1.7-3.8,4.6-3.8,8.5v19.8h-10.7V79.2H1111.8z"/>
		<path class="st4" d="M1149.4,107.1l9.2-27.9h11.5l-15.1,41.5c-2.2,6-5,10.3-8.6,13c-3.6,2.7-8,3.9-13.3,3.6v-10
			c2.8,0.1,5.1-0.6,6.8-1.8c1.7-1.3,3.1-3.3,4.1-6.1l-17-40.2h11.7L1149.4,107.1z"/>
	</g>
	<g>
		<path class="st5" d="M841,63.4v47.1h22.2v11h-33.6V63.4H841z"/>
		<path class="st5" d="M874.4,75c-1.8,0-3.3-0.6-4.6-2c-1.3-1.3-2-2.8-2-4.6c0-1.8,0.6-3.3,2-4.6c1.3-1.3,2.8-2,4.6-2
			c1.8,0,3.4,0.7,4.7,2c1.3,1.3,2,2.9,2,4.6c0,1.8-0.7,3.3-2,4.6C877.8,74.4,876.3,75,874.4,75z M879.8,121.5h-10.7V80h10.7V121.5z"
			/>
		<path class="st5" d="M913.8,78.9c5.6,0,10.3,2.1,14.3,6.4c4,4.3,6,9.4,6,15.5c0,6.2-2,11.4-6,15.6c-3.9,4.2-8.6,6.3-14.3,6.3
			c-5.8,0-10.3-2-13.4-6.1v4.9h-10.7V63.4h10.7v21.5C903.5,80.9,908,78.9,913.8,78.9z M903.6,109.2c2.2,2.2,4.9,3.2,8.2,3.2
			c3.3,0,6.1-1.1,8.2-3.2c2.2-2.2,3.3-5,3.3-8.5c0-3.4-1.1-6.2-3.3-8.4c-2.2-2.2-4.9-3.3-8.2-3.3c-3.3,0-6.1,1.1-8.2,3.3
			c-2.2,2.2-3.2,5-3.2,8.4C900.3,104.2,901.4,107,903.6,109.2z"/>
		<path class="st5" d="M952.3,80v7.1c0.9-2.6,2.5-4.6,4.8-5.9c2.3-1.4,4.9-2,7.8-2v12c-3.3-0.4-6.2,0.2-8.8,2
			c-2.5,1.7-3.8,4.6-3.8,8.5v19.8h-10.7V80H952.3z"/>
		<path class="st5" d="M1001.1,84.9V80h10.7v41.5h-10.7v-4.9c-3.2,4-7.7,6.1-13.5,6.1c-5.5,0-10.3-2.1-14.3-6.3
			c-3.9-4.3-5.9-9.5-5.9-15.6c0-6.1,2-11.3,5.9-15.5c4-4.3,8.7-6.4,14.3-6.4C993.4,78.9,997.9,80.9,1001.1,84.9z M981.3,109.2
			c2.2,2.2,4.9,3.2,8.2,3.2c3.3,0,6.1-1.1,8.2-3.2c2.2-2.2,3.3-5,3.3-8.5c0-3.4-1.1-6.2-3.3-8.4c-2.2-2.2-4.9-3.3-8.2-3.3
			c-3.3,0-6.1,1.1-8.2,3.3c-2.2,2.2-3.2,5-3.2,8.4C978.1,104.2,979.2,107,981.3,109.2z"/>
		<path class="st5" d="M1032.2,80v7.1c0.9-2.6,2.5-4.6,4.8-5.9c2.3-1.4,4.9-2,7.8-2v12c-3.3-0.4-6.2,0.2-8.8,2
			c-2.5,1.7-3.8,4.6-3.8,8.5v19.8h-10.7V80H1032.2z"/>
		<path class="st5" d="M1069.8,107.9L1079,80h11.5l-15.1,41.5c-2.2,6-5,10.3-8.6,13c-3.6,2.7-8,3.9-13.3,3.6v-10
			c2.8,0.1,5.1-0.6,6.8-1.8c1.7-1.3,3.1-3.3,4.1-6.1l-17-40.2h11.7L1069.8,107.9z"/>
	</g>
</g>
</svg>
