<svg version="1.1" id="Calque_1" xmlns="http://www.w3.org/2000/svg" xmlns:xlink="http://www.w3.org/1999/xlink" x="0px" y="0px"
	 viewBox="0 0 220 40" style="enable-background:new 0 0 220 40;" xml:space="preserve">
<g>
	<path d="M6.7,1.5v23.3h10.9v5.4H1.1V1.5H6.7z"/>
	<path d="M35.8,12.2V9.7h5.3v20.5h-5.3v-2.4c-1.6,2-3.8,3-6.7,3c-2.7,0-5.1-1-7.1-3.1c-1.9-2.1-2.9-4.7-2.9-7.7c0-3,1-5.6,2.9-7.7
		c2-2.1,4.3-3.2,7.1-3.2C32,9.2,34.2,10.2,35.8,12.2z M26.1,24.2c1.1,1.1,2.4,1.6,4.1,1.6c1.6,0,3-0.5,4.1-1.6
		c1.1-1.1,1.6-2.5,1.6-4.2c0-1.7-0.5-3.1-1.6-4.1c-1.1-1.1-2.4-1.6-4.1-1.6c-1.6,0-3,0.5-4.1,1.6c-1.1,1.1-1.6,2.4-1.6,4.1
		C24.5,21.7,25,23.1,26.1,24.2z"/>
	<path d="M57.8,9.2c2.8,0,5.1,1.1,7.1,3.2c2,2.1,3,4.7,3,7.7c0,3.1-1,5.6-3,7.7c-1.9,2.1-4.3,3.1-7.1,3.1c-2.9,0-5.1-1-6.6-3v2.4
		h-5.3V1.5h5.3v10.6C52.7,10.2,55,9.2,57.8,9.2z M52.8,24.2c1.1,1.1,2.4,1.6,4.1,1.6c1.6,0,3-0.5,4.1-1.6c1.1-1.1,1.6-2.5,1.6-4.2
		c0-1.7-0.5-3.1-1.6-4.1c-1.1-1.1-2.4-1.6-4.1-1.6c-1.6,0-3,0.5-4.1,1.6c-1.1,1.1-1.6,2.4-1.6,4.1C51.2,21.7,51.7,23.1,52.8,24.2z"
		/>
	<path d="M88.9,1.5V7H77.5v6.8h11.2v5.4H77.5v11.1h-5.7V1.5H88.9z"/>
	<path d="M108.4,12.2V9.7h5.3v20.5h-5.3v-2.4c-1.6,2-3.8,3-6.7,3c-2.7,0-5.1-1-7.1-3.1c-1.9-2.1-2.9-4.7-2.9-7.7c0-3,1-5.6,2.9-7.7
		c2-2.1,4.3-3.2,7.1-3.2C104.6,9.2,106.8,10.2,108.4,12.2z M98.7,24.2c1.1,1.1,2.4,1.6,4.1,1.6c1.6,0,3-0.5,4.1-1.6
		c1.1-1.1,1.6-2.5,1.6-4.2c0-1.7-0.5-3.1-1.6-4.1c-1.1-1.1-2.4-1.6-4.1-1.6c-1.6,0-3,0.5-4.1,1.6c-1.1,1.1-1.6,2.4-1.6,4.1
		C97.1,21.7,97.6,23.1,98.7,24.2z"/>
	<path d="M128.3,30.8c-3.1,0-5.7-1-7.7-3.1c-2.1-2.1-3.1-4.6-3.1-7.7s1-5.6,3.1-7.7c2.1-2.1,4.7-3.1,7.7-3.1c2,0,3.8,0.5,5.5,1.4
		c1.6,1,2.9,2.2,3.7,3.9l-4.6,2.7c-0.4-0.8-1-1.5-1.9-2c-0.8-0.5-1.8-0.7-2.8-0.7c-1.6,0-2.9,0.5-3.9,1.6c-1,1.1-1.6,2.4-1.6,4
		c0,1.6,0.5,2.9,1.6,4c1,1,2.4,1.6,3.9,1.6c1.1,0,2-0.2,2.8-0.7c0.8-0.5,1.5-1.1,1.9-2l4.6,2.6c-0.9,1.6-2.2,2.9-3.8,3.9
		C132,30.3,130.2,30.8,128.3,30.8z"/>
	<path d="M152,9.7v5.1h-4.6v8.5c0,0.7,0.2,1.2,0.5,1.6c0.4,0.3,0.9,0.5,1.6,0.6c0.7,0,1.5,0,2.5,0v4.8c-3.6,0.4-6.1,0.1-7.6-1
		c-1.5-1.1-2.3-3-2.3-5.9v-8.5h-3.6V9.7h3.6V5.6l5.3-1.6v5.7H152z"/>
	<path d="M172.6,27.7c-2.1,2.1-4.6,3.1-7.7,3.1s-5.6-1-7.7-3.1c-2.1-2.1-3.1-4.6-3.1-7.7c0-3,1-5.6,3.1-7.7c2.1-2.1,4.7-3.2,7.7-3.2
		c3,0,5.6,1.1,7.7,3.2c2.1,2.1,3.2,4.7,3.2,7.7C175.8,23,174.7,25.6,172.6,27.7z M160.9,24c1.1,1.1,2.4,1.6,4,1.6s2.9-0.5,4-1.6
		c1.1-1.1,1.6-2.4,1.6-4.1s-0.5-3-1.6-4.1c-1.1-1.1-2.4-1.6-4-1.6s-2.9,0.5-4,1.6c-1,1.1-1.6,2.4-1.6,4.1
		C159.4,21.6,159.9,23,160.9,24z"/>
	<path d="M184.8,9.7v3.5c0.5-1.3,1.3-2.3,2.4-2.9c1.1-0.7,2.4-1,3.9-1v5.9c-1.6-0.2-3.1,0.1-4.3,1c-1.3,0.8-1.9,2.3-1.9,4.2v9.8
		h-5.3V9.7H184.8z"/>
	<path d="M203.4,23.5l4.6-13.8h5.7l-7.5,20.5c-1.1,3-2.5,5.1-4.2,6.4c-1.8,1.3-4,1.9-6.6,1.8v-4.9c1.4,0,2.5-0.3,3.4-0.9
		c0.8-0.6,1.5-1.6,2-3l-8.4-19.8h5.8L203.4,23.5z"/>
	<path d="M218.9,27.3c0,1-0.3,1.8-1,2.5c-0.7,0.7-1.5,1-2.5,1c-1,0-1.8-0.3-2.5-1c-0.7-0.7-1-1.5-1-2.5s0.3-1.8,1-2.5
		c0.7-0.7,1.5-1,2.5-1c1,0,1.8,0.3,2.5,1C218.6,25.5,218.9,26.3,218.9,27.3z"/>
</g>
</svg>
